<?xml version="1.0" standalone="no"?>
<svg xmlns:xlink="http://www.w3.org/1999/xlink" id="wave" style="transform:rotate(0deg); transition: 0.3s" viewBox="0 0 1440 490" version="1.1" xmlns="http://www.w3.org/2000/svg"><defs><linearGradient id="sw-gradient-0" x1="0" x2="0" y1="1" y2="0"><stop stop-color="rgba(16, 46, 96, 1)" offset="0%"/><stop stop-color="rgba(16, 46, 96, 1)" offset="100%"/></linearGradient></defs><path style="transform:translate(0, 0px); opacity:1" fill="url(#sw-gradient-0)" d="M0,245L48,236.8C96,229,192,212,288,187.8C384,163,480,131,576,114.3C672,98,768,98,864,106.2C960,114,1056,131,1152,187.8C1248,245,1344,343,1440,383.8C1536,425,1632,408,1728,383.8C1824,359,1920,327,2016,261.3C2112,196,2208,98,2304,49C2400,0,2496,0,2592,40.8C2688,82,2784,163,2880,212.3C2976,261,3072,278,3168,269.5C3264,261,3360,229,3456,220.5C3552,212,3648,229,3744,261.3C3840,294,3936,343,4032,359.3C4128,376,4224,359,4320,367.5C4416,376,4512,408,4608,424.7C4704,441,4800,441,4896,424.7C4992,408,5088,376,5184,318.5C5280,261,5376,180,5472,155.2C5568,131,5664,163,5760,147C5856,131,5952,65,6048,89.8C6144,114,6240,229,6336,269.5C6432,310,6528,278,6624,277.7C6720,278,6816,310,6864,326.7L6912,343L6912,490L6864,490C6816,490,6720,490,6624,490C6528,490,6432,490,6336,490C6240,490,6144,490,6048,490C5952,490,5856,490,5760,490C5664,490,5568,490,5472,490C5376,490,5280,490,5184,490C5088,490,4992,490,4896,490C4800,490,4704,490,4608,490C4512,490,4416,490,4320,490C4224,490,4128,490,4032,490C3936,490,3840,490,3744,490C3648,490,3552,490,3456,490C3360,490,3264,490,3168,490C3072,490,2976,490,2880,490C2784,490,2688,490,2592,490C2496,490,2400,490,2304,490C2208,490,2112,490,2016,490C1920,490,1824,490,1728,490C1632,490,1536,490,1440,490C1344,490,1248,490,1152,490C1056,490,960,490,864,490C768,490,672,490,576,490C480,490,384,490,288,490C192,490,96,490,48,490L0,490Z"/><defs><linearGradient id="sw-gradient-1" x1="0" x2="0" y1="1" y2="0"><stop stop-color="rgba(236, 112, 126, 1)" offset="0%"/><stop stop-color="rgba(236, 112, 126, 1)" offset="100%"/></linearGradient></defs><path style="transform:translate(0, 50px); opacity:0.9" fill="url(#sw-gradient-1)" d="M0,343L48,294C96,245,192,147,288,130.7C384,114,480,180,576,187.8C672,196,768,147,864,155.2C960,163,1056,229,1152,277.7C1248,327,1344,359,1440,318.5C1536,278,1632,163,1728,147C1824,131,1920,212,2016,261.3C2112,310,2208,327,2304,318.5C2400,310,2496,278,2592,285.8C2688,294,2784,343,2880,367.5C2976,392,3072,392,3168,351.2C3264,310,3360,229,3456,171.5C3552,114,3648,82,3744,114.3C3840,147,3936,245,4032,277.7C4128,310,4224,278,4320,294C4416,310,4512,376,4608,359.3C4704,343,4800,245,4896,187.8C4992,131,5088,114,5184,147C5280,180,5376,261,5472,285.8C5568,310,5664,278,5760,253.2C5856,229,5952,212,6048,187.8C6144,163,6240,131,6336,122.5C6432,114,6528,131,6624,114.3C6720,98,6816,49,6864,24.5L6912,0L6912,490L6864,490C6816,490,6720,490,6624,490C6528,490,6432,490,6336,490C6240,490,6144,490,6048,490C5952,490,5856,490,5760,490C5664,490,5568,490,5472,490C5376,490,5280,490,5184,490C5088,490,4992,490,4896,490C4800,490,4704,490,4608,490C4512,490,4416,490,4320,490C4224,490,4128,490,4032,490C3936,490,3840,490,3744,490C3648,490,3552,490,3456,490C3360,490,3264,490,3168,490C3072,490,2976,490,2880,490C2784,490,2688,490,2592,490C2496,490,2400,490,2304,490C2208,490,2112,490,2016,490C1920,490,1824,490,1728,490C1632,490,1536,490,1440,490C1344,490,1248,490,1152,490C1056,490,960,490,864,490C768,490,672,490,576,490C480,490,384,490,288,490C192,490,96,490,48,490L0,490Z"/></svg>